<svg width="25" height="25" viewBox="0 0 25 25" fill="none" xmlns="http://www.w3.org/2000/svg">
<g clip-path="url(#clip0_1691_20031)">
<path d="M23.2112 0H1.35776C0.997659 0 0.652307 0.143049 0.397678 0.397678C0.143049 0.652307 0 0.997659 0 1.35776L0 23.2112C0 23.5713 0.143049 23.9167 0.397678 24.1713C0.652307 24.4259 0.997659 24.569 1.35776 24.569H13.125V15.0862H9.91379V11.3491H13.1078V8.62069C13.1078 5.44397 15.0431 3.71552 17.875 3.71552C18.837 3.71838 19.7982 3.77305 20.7543 3.87931V7.19397H18.7974C17.2586 7.19397 16.9612 7.92241 16.9612 8.99569V11.3664H20.6466L20.1681 15.0862H16.9612V24.569H23.2112C23.5713 24.569 23.9167 24.4259 24.1713 24.1713C24.4259 23.9167 24.569 23.5713 24.569 23.2112V1.35776C24.569 0.997659 24.4259 0.652307 24.1713 0.397678C23.9167 0.143049 23.5713 0 23.2112 0V0Z" fill="white"/>
</g>
<defs>
<clipPath id="clip0_1691_20031">
<rect width="25" height="25" fill="white"/>
</clipPath>
</defs>
</svg>
