<svg width="15" height="14" viewBox="0 0 15 14" fill="none" xmlns="http://www.w3.org/2000/svg">
<path d="M14.1907 9.92513H4.40072L4.89227 8.86823L13.0596 8.85261C13.3358 8.85261 13.5725 8.64435 13.6219 8.35627L14.7529 1.67299C14.7825 1.49771 14.7381 1.31722 14.6296 1.18012C14.576 1.11264 14.5091 1.05829 14.4336 1.02083C14.3581 0.983371 14.2758 0.9637 14.1923 0.963183L3.80231 0.926738L3.71353 0.48593C3.65763 0.204785 3.41761 0 3.14471 0H0.604743C0.45083 0 0.303221 0.0645436 0.194388 0.179432C0.0855557 0.29432 0.0244141 0.450143 0.0244141 0.612619C0.0244141 0.775096 0.0855557 0.930918 0.194388 1.04581C0.303221 1.16069 0.45083 1.22524 0.604743 1.22524H2.67453L3.06251 3.17243L4.01767 8.05429L2.78796 10.1733C2.7241 10.2643 2.68564 10.3723 2.67692 10.4852C2.66821 10.5981 2.68959 10.7112 2.73864 10.8119C2.83728 11.0185 3.03621 11.1486 3.2565 11.1486H4.28893C4.06883 11.4572 3.94994 11.8331 3.95026 12.2194C3.95026 13.2017 4.7065 14 5.637 14C6.5675 14 7.32373 13.2017 7.32373 12.2194C7.32373 11.8324 7.20208 11.4558 6.98507 11.1486H9.63354C9.41344 11.4572 9.29456 11.8331 9.29488 12.2194C9.29488 13.2017 10.0511 14 10.9816 14C11.9121 14 12.6683 13.2017 12.6683 12.2194C12.6683 11.8324 12.5467 11.4558 12.3297 11.1486H14.1923C14.5113 11.1486 14.7727 10.8744 14.7727 10.536C14.7717 10.3737 14.71 10.2184 14.6009 10.1039C14.4919 9.98949 14.3444 9.92522 14.1907 9.92513ZM4.04397 2.13462L13.5101 2.1676L12.5829 7.6482L5.14709 7.66208L4.04397 2.13462ZM5.637 12.7678C5.35094 12.7678 5.1175 12.5214 5.1175 12.2194C5.1175 11.9174 5.35094 11.671 5.637 11.671C5.92305 11.671 6.1565 11.9174 6.1565 12.2194C6.1565 12.3649 6.10177 12.5043 6.00434 12.6072C5.90692 12.71 5.77478 12.7678 5.637 12.7678ZM10.9816 12.7678C10.6956 12.7678 10.4621 12.5214 10.4621 12.2194C10.4621 11.9174 10.6956 11.671 10.9816 11.671C11.2677 11.671 11.5011 11.9174 11.5011 12.2194C11.5011 12.3649 11.4464 12.5043 11.349 12.6072C11.2515 12.71 11.1194 12.7678 10.9816 12.7678Z" fill="white"/>
</svg>
