<svg width="10" height="11" viewBox="0 0 10 11" fill="none" xmlns="http://www.w3.org/2000/svg">
<path d="M5.93882 5.58293L8.80312 2.72528C8.92856 2.59985 8.99902 2.42973 8.99902 2.25234C8.99902 2.07495 8.92856 1.90483 8.80312 1.7794C8.67769 1.65396 8.50757 1.5835 8.33018 1.5835C8.15279 1.5835 7.98267 1.65396 7.85724 1.7794L4.99959 4.6437L2.14195 1.7794C2.01651 1.65396 1.84639 1.5835 1.669 1.5835C1.49162 1.5835 1.32149 1.65396 1.19606 1.7794C1.07063 1.90483 1.00016 2.07495 1.00016 2.25234C1.00016 2.42973 1.07063 2.59985 1.19606 2.72528L4.06037 5.58293L1.19606 8.44057C1.13363 8.5025 1.08407 8.57617 1.05025 8.65734C1.01643 8.73851 0.999023 8.82558 0.999023 8.91352C0.999023 9.00145 1.01643 9.08852 1.05025 9.16969C1.08407 9.25086 1.13363 9.32453 1.19606 9.38646C1.25798 9.44889 1.33166 9.49845 1.41283 9.53227C1.494 9.56609 1.58107 9.5835 1.669 9.5835C1.75694 9.5835 1.844 9.56609 1.92518 9.53227C2.00635 9.49845 2.08002 9.44889 2.14195 9.38646L4.99959 6.52215L7.85724 9.38646C7.91916 9.44889 7.99283 9.49845 8.07401 9.53227C8.15518 9.56609 8.24224 9.5835 8.33018 9.5835C8.41812 9.5835 8.50518 9.56609 8.58635 9.53227C8.66753 9.49845 8.7412 9.44889 8.80312 9.38646C8.86556 9.32453 8.91511 9.25086 8.94893 9.16969C8.98275 9.08852 9.00016 9.00145 9.00016 8.91352C9.00016 8.82558 8.98275 8.73851 8.94893 8.65734C8.91511 8.57617 8.86556 8.5025 8.80312 8.44057L5.93882 5.58293Z" stroke="#141815" stroke-width="2"/>
</svg>
