<svg width="21" height="30" viewBox="0 0 21 30" fill="none" xmlns="http://www.w3.org/2000/svg">
<rect x="0.5" y="5" width="20.0035" height="20" rx="10" fill="#8CEEA0"/>
<rect x="0.5" y="5" width="20.0035" height="20" rx="10" fill="#8CEEA0"/>
<path d="M4.33256 15.7732C4.08811 15.5239 3.95117 15.1886 3.95117 14.8395C3.95117 14.4903 4.08811 14.1551 4.33256 13.9058C4.45425 13.7817 4.59947 13.683 4.75973 13.6157C4.92004 13.5484 5.09216 13.5137 5.26604 13.5137C5.43991 13.5137 5.61204 13.5484 5.77234 13.6157C5.93234 13.6829 6.07736 13.7813 6.19892 13.9052L9.17369 16.9199L14.7644 10.2681C14.7812 10.2475 14.7992 10.2278 14.818 10.209C14.939 10.0865 15.0831 9.98906 15.2419 9.92235C15.4022 9.855 15.5743 9.82031 15.7482 9.82031C15.922 9.82031 16.0942 9.855 16.2545 9.92235C16.4144 9.98954 16.5594 10.0879 16.6809 10.2117C17.1815 10.7185 17.1919 11.532 16.709 12.0516L10.2002 19.7459L10.1941 19.7526C10.0743 19.8841 9.92905 19.9898 9.76709 20.0632C9.60513 20.1365 9.4299 20.1761 9.25212 20.1795C9.07434 20.1828 8.89775 20.1498 8.73315 20.0826C8.56876 20.0154 8.41931 19.915 8.29483 19.7883L4.33256 15.7732Z" fill="#141815"/>
</svg>
