<svg width="80" height="76" viewBox="0 0 80 76" fill="none" xmlns="http://www.w3.org/2000/svg">
<rect width="71.2654" height="65.4484" transform="matrix(1 0.000581645 -0.00542226 0.999985 4.93945 5.75781)" fill="#8CEEA0"/>
<rect width="71.2654" height="65.4484" transform="matrix(0.988583 -0.150677 0.14589 0.989301 0 10.9949)" fill="#141815"/>
<path d="M26.1945 60.2185L23.6797 64.3448L19.9394 61.3491L14.8516 62.2563L15.4156 65.5351L19.0788 64.8856L24.5228 69.2458L28.1831 63.241L73.0053 55.1283L72.4413 51.8511L26.1945 60.2185Z" fill="white"/>
<path d="M13.585 28.3624C15.6245 27.9945 17.3253 26.9741 18.465 25.6289L17.6567 20.932L12.2316 21.9122L12.7128 24.7098L14.684 24.3538L14.7232 24.5787C14.2566 25.0003 13.7173 25.2937 13.0762 25.4099C11.5092 25.693 9.98574 24.5087 9.66157 22.6272C9.36793 20.9171 10.4073 19.2874 11.9743 19.0044C12.9861 18.8212 14.0211 18.991 14.7668 19.4796L16.5054 16.7625C15.1724 15.8806 13.4222 15.5037 11.4336 15.8627C9.70954 16.174 8.26315 17.1349 7.30664 18.4398L8.84607 27.3897C10.1805 28.2805 11.861 28.6768 13.5836 28.3654L13.585 28.3624Z" fill="white"/>
<path d="M23.868 23.6363L25.3333 23.3712C25.3667 23.3652 25.4001 23.3593 25.4365 23.3712L27.7187 25.6295L31.8297 24.8862L28.7232 22.0826C30.0693 21.0205 30.5054 19.4102 30.1638 17.4245C29.748 15.0067 28.0996 13.0076 24.4102 13.675L18.7656 14.6954L20.8604 26.8689L24.3143 26.2447L23.8651 23.6378L23.868 23.6363ZM22.7181 16.9537L24.3186 16.6647C25.7679 16.4026 26.4119 17.3187 26.5863 18.3376C26.7462 19.2702 26.4075 20.3278 24.7053 20.6362L23.3912 20.873L22.7167 16.9537H22.7181Z" fill="white"/>
<path d="M43.0292 22.8621L42.5321 19.9796L36.2319 21.1177L35.9514 19.494L40.8546 18.6092L40.3734 15.8116L35.4702 16.6979L35.1286 14.7122L41.077 13.6367L40.5798 10.7527L31.2793 12.4345L33.374 24.6065L43.0292 22.8621Z" fill="white"/>
<path d="M54.6699 20.7608L54.1727 17.8768L47.8711 19.0149L47.592 17.3927L52.4937 16.5063L52.0126 13.7088L47.1108 14.5951L46.7692 12.6094L52.7162 11.5339L52.2205 8.65137L42.9199 10.3317L45.0146 22.5052L54.6699 20.7608Z" fill="white"/>
<path d="M63.3595 12.8519L56.1726 7.93606L54.5547 8.22803L56.6494 20.4015L60.1033 19.7774L59.0669 13.7517L66.2538 18.6661L66.7102 18.5841L64.6155 6.41064L62.3216 6.82477L63.3595 12.8519Z" fill="white"/>
<path d="M16.1795 45.3009C19.5215 44.6976 21.4534 42.5718 20.9577 39.6864C20.4954 37.002 18.3818 36.3108 15.0747 36.1857C13.1646 36.0963 12.7227 35.8669 12.6253 35.3068C12.5424 34.8256 12.8492 34.3787 13.669 34.2297C14.9003 34.0078 16.5589 34.1612 17.8934 34.4159L18.9618 31.021C17.4195 30.7216 15.5951 30.4326 13.2111 30.8631C11.7008 31.1357 10.5306 31.7539 9.74414 32.5941L10.8983 39.299C11.9057 39.7117 13.1762 39.8368 14.5877 39.9083C16.4775 40.0007 16.9107 40.2941 16.9936 40.7738C17.0968 41.3741 16.6592 41.7644 15.7405 41.9298C14.3435 42.183 12.948 42.2635 11.3446 41.8925L11.9668 45.5094C13.3085 45.7031 14.5063 45.6018 16.1795 45.2994V45.3009Z" fill="white"/>
<path d="M32.5106 42.1431L36.3802 41.443L33.9512 27.3225L30.0815 28.0212L31.2081 34.5712L26.3994 35.4397L25.2728 28.8896L21.3828 29.5927L23.8133 43.7147L27.7033 43.0116L26.9751 38.7854L31.7838 37.9155L32.5106 42.1431Z" fill="white"/>
<path d="M40.7843 26.087L36.7773 26.811L39.2072 40.9327L43.2142 40.2086L40.7843 26.087Z" fill="white"/>
<path d="M50.1215 24.4L43.5742 25.5828L46.0047 39.7048L50.011 38.9808L49.4906 35.9568L51.1914 35.6499C51.2307 35.6425 51.2699 35.6365 51.3121 35.6499L53.9606 38.2687L58.7301 37.4077L55.1279 34.1558C56.6892 32.9238 57.195 31.0558 56.7982 28.7528C56.3156 25.9478 54.404 23.6284 50.1244 24.403L50.1215 24.4ZM52.6451 29.809C52.8311 30.8904 52.4372 32.1179 50.4631 32.4754L48.9382 32.751L48.1562 28.2046L50.0125 27.8694C51.6944 27.5655 52.4416 28.6291 52.6451 29.8104V29.809Z" fill="white"/>
<path d="M57.5952 26.4989L61.6422 25.7675L63.497 36.5437L67.5033 35.8197L65.6485 25.0435L67.7563 24.6622L67.1806 21.3179L57.0195 23.1531L57.5952 26.4989Z" fill="white"/>
<path d="M17.2884 59.3637C19.9282 58.887 21.4546 57.2067 21.0621 54.929C20.6972 52.8092 19.0269 52.2625 16.4147 52.1627C14.9058 52.0927 14.5569 51.9109 14.4799 51.4685C14.4145 51.0886 14.6558 50.7356 15.3041 50.6179C16.2766 50.4421 17.5878 50.5643 18.6417 50.7654L19.4863 48.084C18.2681 47.8471 16.8275 47.6192 14.9436 47.9589C13.9624 48.1361 13.1614 48.4981 12.5625 48.9897L13.5583 54.7755C14.272 54.9826 15.1137 55.0571 16.0309 55.1048C17.5238 55.1777 17.8669 55.4101 17.9323 55.7885C18.0137 56.2637 17.6678 56.5706 16.9424 56.7017C15.9655 56.8789 14.9901 56.9489 13.8999 56.7598L14.3854 59.5782C15.2838 59.6572 16.1458 59.5708 17.2884 59.3637V59.3637Z" fill="white"/>
<path d="M25.6501 57.6888L28.8147 57.1168L27.3509 48.6049L30.5315 48.0299L30.0765 45.3872L20.5332 47.1107L20.9882 49.7534L24.1848 49.1754L25.6501 57.6888Z" fill="white"/>
<path d="M41.3603 43.3479L38.2873 43.9035L39.2918 49.743C39.6377 51.7526 39.0693 52.5242 37.7262 52.767C36.4135 53.0039 35.6227 52.478 35.2767 50.4685L34.2723 44.629L31.1992 45.1847L32.3476 51.8628C32.7939 54.4578 34.8741 56.1873 38.2102 55.584C41.5609 54.9792 42.9521 52.6061 42.5087 50.0275L41.3603 43.3494V43.3479Z" fill="white"/>
<path d="M48.3238 42.0895L43.4453 42.9713L45.3641 54.1274L50.5988 53.1815C53.4552 52.6646 55.2767 49.6435 54.7664 46.6851C54.2358 43.6 51.3518 41.5428 48.3238 42.0895V42.0895ZM49.8356 50.4152L47.9517 50.7548L47.001 45.2326L48.8064 44.9064C50.1045 44.6725 51.3852 45.7287 51.6469 47.2482C51.9027 48.7363 51.0916 50.1381 49.8342 50.4152H49.8356Z" fill="white"/>
<path d="M58.6848 40.2166L55.5195 40.7886L57.439 51.9439L60.6042 51.3719L58.6848 40.2166Z" fill="white"/>
<path d="M66.1551 38.722C62.9426 39.3029 60.7751 42.3374 61.3203 45.5014C61.8654 48.6654 64.9152 50.7584 68.1278 50.1774C69.6323 49.9063 70.9028 49.1019 71.7765 47.9995L70.3126 39.4891C69.125 38.7607 67.6626 38.4493 66.1581 38.722H66.1551ZM69.7501 43.979C70.0219 45.561 69.0828 47.0357 67.6306 47.2979C66.2118 47.5541 64.8192 46.501 64.5474 44.9189C64.2785 43.3518 65.2321 41.8592 66.6508 41.603C68.1031 41.3408 69.4797 42.4133 69.7501 43.979V43.979Z" fill="white"/>
</svg>
