<svg width="69" height="64" viewBox="0 0 69 64" fill="none" xmlns="http://www.w3.org/2000/svg">
<path d="M19.7065 54.8053L17.0816 59.0081L13.1777 55.9569L7.86719 56.8809L8.45589 60.2204L12.2794 59.5589L17.9616 64L21.7821 57.8838L68.5659 49.6207L67.9772 46.2827L19.7065 54.8053Z" fill="#4DAB61"/>
<path d="M6.55312 22.3581C8.67731 21.9833 10.4556 20.944 11.6466 19.5739L10.803 14.7899L5.14054 15.7883L5.64276 18.6377L7.70018 18.2751L7.73812 18.5103C7.25611 18.9482 6.66022 19.2412 6.01904 19.3554C4.38342 19.6437 2.79331 18.445 2.45496 16.5211C2.1515 14.7793 3.23332 13.1209 4.86894 12.8311C5.93104 12.646 7.00527 12.8174 7.78364 13.3151L9.60437 10.5476C8.21302 9.64937 6.38622 9.26398 4.31059 9.63723C2.59389 9.92867 1.05259 10.8629 0 12.25L1.6068 21.3643C3.06928 22.3123 4.83796 22.6677 6.55312 22.3581Z" fill="#4DAB61"/>
<path d="M17.2835 17.5462L18.8114 17.2762C18.8468 17.2671 18.8838 17.2671 18.9192 17.2762L21.3043 19.5733L25.5967 18.8147L22.3543 15.9592C23.7593 14.8774 24.2145 13.2372 23.8579 11.2147C23.424 8.75211 21.7034 6.71592 17.8525 7.39566L11.9609 8.43803L14.1473 20.8372L17.7494 20.2015L17.2835 17.5462ZM16.0803 10.7397L17.7494 10.4454C19.2666 10.1783 19.9342 11.1115 20.1163 12.1493C20.2847 13.0991 19.9297 14.1779 18.1529 14.4905L16.7874 14.7317L16.0803 10.7397Z" fill="#4DAB61"/>
<path d="M37.2876 16.7573L36.7687 13.8214L30.1928 14.9806L29.9 13.3267L35.0177 12.4255L34.5155 9.57601L29.3977 10.4788L29.0412 8.45626L35.2499 7.36079L34.731 4.42334L25.0234 6.13635L27.2098 18.534L37.2876 16.7573Z" fill="#4DAB61"/>
<path d="M49.4321 14.6167L48.9132 11.6792L42.3358 12.8384L42.0445 11.1861L47.1608 10.2833L46.6585 7.43387L41.5423 8.33665L41.1857 6.31412L47.3929 5.22016L46.8755 2.28271L37.168 3.9942L39.3544 16.3934L49.4321 14.6167Z" fill="#4DAB61"/>
<path d="M58.5105 6.56022L51.009 1.5532L49.3203 1.85059L51.5067 14.2498L55.1118 13.614L54.0299 7.47666L61.5314 12.4822L62.0078 12.3987L59.8214 -0.000488281L57.4271 0.421315L58.5105 6.56022Z" fill="#4DAB61"/>
<path d="M9.2554 39.6108C12.7451 38.9933 14.7631 36.8312 14.2457 33.8922C13.7632 31.1611 11.5571 30.454 8.10531 30.3266C6.11161 30.2356 5.65035 30.0019 5.55021 29.4314C5.46373 28.9413 5.78236 28.4861 6.63962 28.3344C7.92475 28.1083 9.65597 28.2646 11.0488 28.5256L12.164 25.0677C10.5542 24.7643 8.65001 24.4608 6.16168 24.9054C4.58522 25.183 3.36382 25.8157 2.54297 26.6684L3.74617 33.4962C4.79764 33.9165 6.12526 34.0439 7.59702 34.1168C9.56948 34.2108 10.0247 34.5097 10.1081 34.9998C10.2158 35.6067 9.75914 36.0073 8.80174 36.1772C7.34212 36.4336 5.88553 36.5171 4.21349 36.1393L4.86289 39.8232C6.26333 40.022 7.51205 39.9188 9.2554 39.6108Z" fill="#4DAB61"/>
<path d="M26.3101 36.3937L30.3491 35.6806L27.8137 21.2983L23.7747 22.0099L24.9506 28.6814L19.9314 29.566L18.7555 22.8945L14.6953 23.6107L17.2322 37.9945L21.2924 37.2783L20.5323 32.9738L25.5514 32.0892L26.3101 36.3937Z" fill="#4DAB61"/>
<path d="M34.9441 20.0413L30.7617 20.7788L33.2979 35.1622L37.4802 34.4248L34.9441 20.0413Z" fill="#4DAB61"/>
<path d="M44.691 18.3227L37.8633 19.5274L40.3987 33.9112L44.5818 33.1738L44.0386 30.0938L45.8138 29.7797C45.8547 29.7698 45.8973 29.7698 45.9382 29.7797L48.7027 32.4471L53.6809 31.5701L49.9196 28.2563C51.5431 27.0076 52.0711 25.0989 51.6569 22.7592C51.1546 19.8977 49.1609 17.5353 44.691 18.3227ZM47.325 23.8335C47.5192 24.935 47.1081 26.1853 45.0491 26.5479L43.4575 26.8286L42.6366 22.1978L44.5742 21.8565C46.3327 21.5454 47.1126 22.6288 47.325 23.8335V23.8335Z" fill="#4DAB61"/>
<path d="M52.4954 20.4602L56.721 19.7152L58.6555 30.6912L62.8371 29.9538L60.9011 18.9778L63.1011 18.5894L62.5003 15.1831L51.8945 17.0524L52.4954 20.4602Z" fill="#4DAB61"/>
<path d="M10.4188 53.9338C13.1742 53.4468 14.7673 51.7368 14.3637 49.4169C13.9829 47.2563 12.2395 46.6995 9.50842 46.5993C7.93349 46.528 7.56782 46.3429 7.48892 45.8923C7.42065 45.5038 7.67252 45.1443 8.34922 45.0259C9.3658 44.8469 10.7329 44.9713 11.839 45.1776L12.719 42.4465C11.4475 42.2068 9.94388 41.9731 7.97749 42.3191C7.07429 42.4557 6.21979 42.8167 5.49219 43.369L6.52394 49.2591C7.26892 49.47 8.14742 49.5474 9.10331 49.5944C10.6616 49.6688 11.0181 49.9055 11.0864 50.2909C11.1714 50.7749 10.8118 51.0889 10.0546 51.2225C9.00783 51.429 7.93276 51.4491 6.87898 51.2816L7.38878 54.1508C8.32494 54.2327 9.22469 54.1432 10.4188 53.9338Z" fill="#4DAB61"/>
<path d="M19.1416 52.2284L22.4447 51.6458L20.9153 42.9761L24.2366 42.3904L23.7617 39.6987L13.8008 41.4542L14.2757 44.1459L17.6122 43.5572L19.1416 52.2284Z" fill="#4DAB61"/>
<path d="M35.5418 37.6274L32.3342 38.1919L33.3827 44.1396C33.7438 46.1864 33.152 46.9724 31.7486 47.2197C30.383 47.4609 29.5546 46.9253 29.1935 44.8785L28.145 38.9308L24.9375 39.4967L26.1361 46.2987C26.602 48.9418 28.7747 50.6988 32.2553 50.0919C35.736 49.485 37.2047 47.0573 36.7419 44.4324L35.5418 37.6274Z" fill="#4DAB61"/>
<path d="M42.8123 36.3392L37.7188 37.2374L39.7231 48.5988L45.1853 47.6369C48.1667 47.1104 50.0664 44.0333 49.5353 41.02C49.2644 39.5078 48.4039 38.1651 47.1431 37.2873C45.8823 36.4095 44.3245 36.0685 42.8123 36.3392V36.3392ZM44.3902 44.8193L42.4178 45.1652L41.427 39.5407L43.3114 39.2084C44.6664 38.9702 46.0031 40.0459 46.2762 41.5936C46.5493 43.1078 45.7027 44.5371 44.3902 44.8193Z" fill="#4DAB61"/>
<path d="M53.628 34.4326L50.3242 35.0151L52.3277 46.3772L55.6314 45.7947L53.628 34.4326Z" fill="#4DAB61"/>
<path d="M61.4228 32.9092C58.0696 33.4994 55.8088 36.5901 56.3763 39.8143C56.9438 43.0385 60.1285 45.1688 63.4802 44.5771C64.9757 44.3213 66.3283 43.5335 67.2886 42.3588L65.7607 33.6906C64.4561 32.9159 62.9156 32.6384 61.4228 32.9092V32.9092ZM65.175 38.2622C65.4587 39.875 64.4786 41.3771 62.9628 41.6442C61.4819 41.9051 60.0284 40.8324 59.7447 39.2165C59.4609 37.6006 60.4593 36.0985 61.9402 35.8375C63.4559 35.5751 64.8943 36.6675 65.175 38.2622Z" fill="#4DAB61"/>
</svg>
