<svg width="69" height="64" viewBox="0 0 69 64" fill="none" xmlns="http://www.w3.org/2000/svg">
<path d="M20.1303 54.8057L17.5054 59.0086L13.6015 55.9574L8.29102 56.8814L8.87972 60.2209L12.7033 59.5594L18.3855 64.0005L22.206 57.8843L68.9897 49.6212L68.401 46.2832L20.1303 54.8057Z" fill="white"/>
<path d="M6.97695 22.3586C9.10114 21.9838 10.8794 20.9445 12.0705 19.5744L11.2268 14.7904L5.56437 15.7888L6.06658 18.6382L8.12401 18.2756L8.16194 18.5108C7.67994 18.9487 7.08405 19.2417 6.44287 19.3559C4.80724 19.6442 3.21714 18.4455 2.87878 16.5216C2.57533 14.7798 3.65715 13.1214 5.29277 12.8316C6.35487 12.6465 7.4291 12.8179 8.20746 13.3156L10.0282 10.5481C8.63685 9.64986 6.81005 9.26447 4.73441 9.63772C3.01772 9.92916 1.47642 10.8634 0.423828 12.2505L2.03063 21.3648C3.49311 22.3128 5.26179 22.6681 6.97695 22.3586Z" fill="white"/>
<path d="M17.7074 17.5467L19.2353 17.2767C19.2706 17.2675 19.3077 17.2675 19.343 17.2767L21.7282 19.5738L26.0205 18.8152L22.7781 15.9597C24.1831 14.8778 24.6383 13.2377 24.2817 11.2151C23.8478 8.7526 22.1272 6.71641 18.2764 7.39615L12.3848 8.43852L14.5712 20.8377L18.1732 20.202L17.7074 17.5467ZM16.5042 10.7402L18.1732 10.4459C19.6905 10.1788 20.3581 11.112 20.5401 12.1498C20.7086 13.0996 20.3535 14.1784 18.5768 14.4909L17.2112 14.7322L16.5042 10.7402Z" fill="white"/>
<path d="M37.7114 16.7578L37.1925 13.8218L30.6166 14.981L30.3238 13.3272L35.4416 12.426L34.9394 9.5765L29.8216 10.4793L29.465 8.45675L35.6737 7.36128L35.1548 4.42383L25.4473 6.13683L27.6337 18.5345L37.7114 16.7578Z" fill="white"/>
<path d="M49.856 14.6172L49.337 11.6797L42.7596 12.8389L42.4683 11.1866L47.5846 10.2838L47.0824 7.43436L41.9661 8.33714L41.6095 6.31461L47.8167 5.22065L47.2993 2.2832L37.5918 3.99469L39.7782 16.3939L49.856 14.6172Z" fill="white"/>
<path d="M58.9343 6.56071L51.4329 1.55369L49.7441 1.85108L51.9305 14.2503L55.5356 13.6145L54.4538 7.47714L61.9552 12.4826L62.4316 12.3992L60.2452 0L57.851 0.421803L58.9343 6.56071Z" fill="white"/>
<path d="M9.67923 39.6113C13.169 38.9938 15.187 36.8317 14.6696 33.8927C14.1871 31.1616 11.9809 30.4545 8.52914 30.3271C6.53543 30.236 6.07418 30.0024 5.97404 29.4319C5.88756 28.9418 6.20618 28.4866 7.06345 28.3349C8.34858 28.1088 10.0798 28.2651 11.4727 28.5261L12.5879 25.0682C10.978 24.7647 9.07384 24.4613 6.5855 24.9059C5.00905 25.1835 3.78764 25.8162 2.9668 26.6689L4.17 33.4967C5.22147 33.917 6.54909 34.0444 8.02085 34.1172C9.99331 34.2113 10.4485 34.5102 10.5319 35.0003C10.6397 35.6072 10.183 36.0078 9.22557 36.1777C7.76595 36.4341 6.30936 36.5176 4.63732 36.1398L5.28671 39.8237C6.68716 40.0225 7.93588 39.9193 9.67923 39.6113Z" fill="white"/>
<path d="M26.7339 36.3942L30.7729 35.6811L28.2375 21.2988L24.1985 22.0104L25.3744 28.6819L20.3553 29.5665L19.1794 22.895L15.1191 23.6112L17.656 37.995L21.7163 37.2788L20.9561 32.9743L25.9753 32.0897L26.7339 36.3942Z" fill="white"/>
<path d="M35.3679 20.0418L31.1855 20.7793L33.7217 35.1627L37.9041 34.4253L35.3679 20.0418Z" fill="white"/>
<path d="M45.1149 18.3232L38.2871 19.5279L40.8225 33.9117L45.0056 33.1743L44.4624 30.0942L46.2376 29.7802C46.2785 29.7703 46.3212 29.7703 46.3621 29.7802L49.1265 32.4475L54.1047 31.5706L50.3434 28.2568C51.9669 27.0081 52.4949 25.0994 52.0807 22.7597C51.5785 19.8981 49.5848 17.5357 45.1149 18.3232ZM47.7489 23.834C47.9431 24.9355 47.5319 26.1857 45.4729 26.5484L43.8813 26.8291L43.0605 22.1983L44.998 21.8569C46.7566 21.5459 47.5364 22.6292 47.7489 23.834Z" fill="white"/>
<path d="M52.9192 20.4607L57.1448 19.7157L59.0793 30.6917L63.261 29.9543L61.3249 18.9783L63.525 18.5899L62.9241 15.1836L52.3184 17.0529L52.9192 20.4607Z" fill="white"/>
<path d="M10.8426 53.9343C13.598 53.4473 15.1911 51.7373 14.7875 49.4174C14.4067 47.2568 12.6633 46.7 9.93225 46.5998C8.35732 46.5285 7.99165 46.3434 7.91275 45.8928C7.84448 45.5043 8.09634 45.1447 8.77305 45.0264C9.78963 44.8474 11.1567 44.9718 12.2628 45.1781L13.1428 42.447C11.8713 42.2073 10.3677 41.9736 8.40132 42.3196C7.49812 42.4562 6.64362 42.8172 5.91602 43.3695L6.94776 49.2596C7.69275 49.4705 8.57125 49.5479 9.52714 49.5949C11.0854 49.6693 11.4419 49.906 11.5102 50.2913C11.5952 50.7754 11.2356 51.0894 10.4785 51.223C9.43166 51.4295 8.35659 51.4496 7.30281 51.2821L7.81261 54.1513C8.74877 54.2332 9.64852 54.1437 10.8426 53.9343Z" fill="white"/>
<path d="M19.5654 52.2289L22.8685 51.6463L21.3391 42.9765L24.6604 42.3909L24.1855 39.6992L14.2246 41.4547L14.6995 44.1464L18.036 43.5577L19.5654 52.2289Z" fill="white"/>
<path d="M35.9656 37.6279L32.7581 38.1924L33.8065 44.1401C34.1676 46.1869 33.5759 46.9728 32.1724 47.2202C30.8068 47.4614 29.9784 46.9258 29.6173 44.879L28.5689 38.9313L25.3613 39.4972L26.56 46.2992C27.0258 48.9423 29.1985 50.6993 32.6792 50.0924C36.1598 49.4855 37.6285 47.0578 37.1657 44.4329L35.9656 37.6279Z" fill="white"/>
<path d="M43.2361 36.3397L38.1426 37.2379L40.1469 48.5993L45.6091 47.6374C48.5906 47.1109 50.4902 44.0338 49.9591 41.0205C49.6882 39.5083 48.8278 38.1656 47.567 37.2878C46.3062 36.41 44.7483 36.069 43.2361 36.3397ZM44.814 44.8198L42.8416 45.1657L41.8508 39.5412L43.7353 39.2089C45.0902 38.9707 46.4269 40.0464 46.7 41.594C46.9731 43.1083 46.1265 44.5376 44.814 44.8198Z" fill="white"/>
<path d="M54.0518 34.4331L50.748 35.0156L52.7515 46.3777L56.0552 45.7952L54.0518 34.4331Z" fill="white"/>
<path d="M61.8466 32.9097C58.4934 33.4999 56.2327 36.5906 56.8001 39.8148C57.3676 43.039 60.5524 45.1693 63.904 44.5776C65.3995 44.3218 66.7521 43.534 67.7124 42.3593L66.1845 33.6911C64.8799 32.9164 63.3395 32.6389 61.8466 32.9097ZM65.5988 38.2626C65.8825 39.8755 64.9024 41.3776 63.3866 41.6447C61.9058 41.9056 60.4522 40.8329 60.1685 39.217C59.8848 37.6011 60.8831 36.099 62.364 35.838C63.8797 35.5755 65.3181 36.668 65.5988 38.2626Z" fill="white"/>
</svg>
