<svg width="10" height="10" viewBox="0 0 10 10" fill="none" xmlns="http://www.w3.org/2000/svg">
<path fill-rule="evenodd" clip-rule="evenodd" d="M9 1.0279C9 0.939495 8.96488 0.854715 8.90237 0.792206C8.83987 0.729697 8.75508 0.69458 8.66668 0.69458H4.66689C4.57849 0.69458 4.49371 0.729697 4.43121 0.792206C4.3687 0.854715 4.33358 0.939495 4.33358 1.0279C4.33358 1.1163 4.3687 1.20108 4.43121 1.26359C4.49371 1.32609 4.57849 1.36121 4.66689 1.36121H7.86206L1.09775 8.12486C1.06676 8.15585 1.04218 8.19264 1.0254 8.23313C1.00863 8.27362 1 8.31702 1 8.36084C1 8.40467 1.00863 8.44807 1.0254 8.48856C1.04218 8.52905 1.06676 8.56584 1.09775 8.59683C1.12874 8.62782 1.16553 8.6524 1.20602 8.66918C1.24651 8.68595 1.28991 8.69458 1.33374 8.69458C1.37756 8.69458 1.42096 8.68595 1.46145 8.66918C1.50194 8.6524 1.53873 8.62782 1.56972 8.59683L8.33337 1.83252V5.02769C8.33337 5.11609 8.36849 5.20087 8.43099 5.26338C8.4935 5.32588 8.57828 5.361 8.66668 5.361C8.75508 5.361 8.83987 5.32588 8.90237 5.26338C8.96488 5.20087 9 5.11609 9 5.02769V1.0279Z" stroke="#141815"/>
</svg>
