<svg width="656" height="251" viewBox="0 0 656 251" fill="none" xmlns="http://www.w3.org/2000/svg">
<rect x="8.04492" y="0.54541" width="647.966" height="228.416" transform="rotate(1.92822 8.04492 0.54541)" fill="#8CEEA0"/>
<rect width="546" height="110" transform="translate(20.5254 39.5881) rotate(-2.8)" fill="#141815"/>
<path d="M106.952 115.457L120.256 114.806L98.3931 73.1045L90.123 73.5089L72.4934 117.142L85.7376 116.494L88.1924 110.187L103.894 109.419L106.952 115.457ZM92.7861 96.0257L95.0302 87.8664L97.9999 95.7707L100.02 100.237L91.211 100.668L92.7861 96.0257ZM138.126 114.653C145.138 114.31 150.034 111.247 152.765 106.909L144.338 100.413C143.347 102.263 141.335 104.104 138.278 104.253C134.323 104.447 131.554 101.879 131.343 97.564C131.147 93.5488 133.715 90.7801 137.43 90.5984C140.187 90.4636 142.355 91.7993 143.659 93.8981L151.592 86.6018C148.567 82.4847 143.276 79.9201 136.084 80.2718C124.698 80.8287 118.766 88.5076 119.247 98.3359C119.757 108.763 126.56 115.219 138.126 114.653ZM169.407 113.303C174.021 113.078 175.979 112.562 177.633 112L177.158 102.292C175.464 103.276 173.675 103.543 172.656 103.593C170.499 103.699 169.61 102.721 169.487 100.204L168.96 89.4168L176.57 89.0445L176.081 79.0365L168.47 79.4087L167.849 66.7039L155.983 67.2843L156.604 79.9891L152.649 80.1825L153.138 90.1906L157.094 89.9971L157.73 103.002C158.114 110.852 162.395 113.646 169.407 113.303ZM187.383 74.8194C190.978 74.6435 193.774 71.6234 193.598 68.0276C193.425 64.4919 190.345 61.699 186.75 61.8749C183.094 62.0537 180.301 65.1338 180.474 68.6695C180.65 72.2652 183.727 74.9982 187.383 74.8194ZM183.121 111.732L195.166 111.143L193.554 78.1819L181.509 78.7711L183.121 111.732ZM201.556 110.83L213.601 110.241L212.552 88.7865C213.446 87.4212 214.964 86.506 216.701 86.421C220.537 86.2334 221.299 88.2987 221.545 93.3327L222.351 109.813L234.396 109.224L233.415 89.1478C232.951 79.6792 229.864 75.505 220.755 75.9505C216.919 76.1381 213.46 77.8692 211.504 79.6468L211.39 77.3096L199.944 77.8694L201.556 110.83ZM256.682 119.728C271.065 119.024 274.176 110.162 273.634 99.075L272.423 74.3246L260.557 74.9049L260.66 77.0024C258.397 74.9505 255.06 74.2727 252.064 74.4193C243.134 74.856 237.476 81.9809 237.936 91.3897C238.387 100.619 244.654 107.16 254.063 106.7C256.7 106.571 260.263 105.736 262.226 102.877L262.32 104.795C262.51 108.69 259.401 110.224 253.828 110.496C250.292 110.669 246.113 109.972 242.636 108.881L243.119 118.769C245.012 119.397 249.911 120.059 256.682 119.728ZM256.869 96.5309C252.794 96.7302 250.439 94.022 250.278 90.726C250.096 87.0104 252.433 84.4332 256.029 84.2573C258.426 84.1401 260.579 85.1761 261.455 87.1157L261.745 93.0486C260.898 95.3727 259.147 96.4195 256.869 96.5309ZM312.2 106.38C320.949 105.952 326.91 102.537 330.859 97.2975L321.012 90.0298C319.412 92.9314 316.209 95.0103 312.134 95.2096C305.482 95.535 301.202 91.5393 300.859 84.5277C300.522 77.6359 304.395 73.3016 311.047 72.9762C315.062 72.7798 318.455 74.5963 320.39 77.325L329.481 69.1311C325.04 64.3023 318.053 61.4602 310.022 61.853C296.059 62.5359 287.42 71.3685 288.094 85.152C288.771 98.9954 298.237 107.063 312.2 106.38ZM334.576 104.324L346.562 103.738L344.328 58.0726L332.343 58.6588L334.576 104.324ZM366.604 103.599C369.241 103.47 372.805 102.635 374.77 99.8354L374.893 102.352L386.46 101.787L384.847 68.8261L372.982 69.4065L373.084 71.5039C370.821 69.452 367.484 68.7743 364.488 68.9208C355.558 69.3575 349.9 76.4825 350.419 87.0898C350.929 97.5173 357.196 104.059 366.604 103.599ZM369.405 93.3097C365.39 93.5061 362.978 90.8608 362.761 86.4261C362.523 81.5719 364.923 79.0516 368.459 78.8787C370.856 78.7615 373.009 79.7975 373.882 81.6771L374.284 89.8873C373.433 92.1516 371.682 93.1983 369.405 93.3097ZM404.728 101.854C413.838 101.409 419.546 97.7656 419.148 89.6154C418.863 83.8023 414.303 81.4423 406.961 79.9392C401.862 78.867 401.185 78.5396 401.132 77.4609C401.08 76.3822 402.018 75.9158 403.456 75.8455C406.273 75.7077 411.009 76.7376 413.716 78.0469L417.124 69.1098C413.586 68.0213 409.564 66.8364 403.091 67.1529C394.522 67.5721 389.238 71.3146 389.613 78.9854C389.936 85.5776 394.856 87.92 401.342 89.1046C406.737 90.1022 407.297 90.4954 407.346 91.5141C407.414 92.8925 405.759 93.454 403.662 93.5566C400.785 93.6973 396.247 93.0182 393.456 91.2323L390.399 99.9721C394.557 101.451 399.335 102.118 404.728 101.854ZM436.448 100.303C445.557 99.8575 451.266 96.2143 450.868 88.064C450.583 82.251 446.023 79.8909 438.68 78.3878C433.582 77.3156 432.905 76.9883 432.852 75.9096C432.8 74.8308 433.738 74.3644 435.176 74.2941C437.993 74.1563 442.729 75.1862 445.436 76.4955L448.844 67.5584C445.306 66.4699 441.283 65.285 434.811 65.6016C426.241 66.0207 420.958 69.7633 421.333 77.4341C421.656 84.0262 426.576 86.3686 433.061 87.5532C438.457 88.5509 439.016 88.944 439.066 89.9628C439.134 91.3411 437.479 91.9026 435.382 92.0052C432.505 92.1459 427.967 91.4668 425.176 89.681L422.119 98.4207C426.276 99.8994 431.055 100.567 436.448 100.303ZM487.931 80.3042C487.435 70.1763 481.45 63.2605 470.184 63.8115C460.116 64.3039 453.139 71.4933 453.652 81.9808C454.165 92.4682 460.788 98.9324 472.055 98.3814C480.385 97.9739 485.224 94.974 487.955 90.6354L480.414 85.0571C478.676 87.605 475.681 89.013 472.745 89.1566C468.85 89.3471 466.673 87.8317 465.676 84.6366L488.029 83.5433C488.045 82.6414 487.969 81.0833 487.931 80.3042ZM470.626 72.8607C474.642 72.6643 476.169 75.6532 476.329 77.6879L465.242 78.2301C465.828 74.2367 468.289 72.975 470.626 72.8607ZM505.331 96.9341C514.44 96.4886 520.149 92.8454 519.75 84.6951C519.466 78.8821 514.905 76.522 507.563 75.0189C502.464 73.9467 501.788 73.6193 501.735 72.5406C501.682 71.4619 502.62 70.9955 504.059 70.9252C506.875 70.7874 511.611 71.8173 514.319 73.1266L517.726 64.1895C514.189 63.101 510.166 61.9161 503.694 62.2326C495.124 62.6518 489.84 66.3943 490.216 74.0652C490.538 80.6573 495.458 82.9997 501.944 84.1843C507.339 85.182 507.899 85.5751 507.949 86.5939C508.016 87.9722 506.362 88.5337 504.264 88.6363C501.388 88.777 496.849 88.0979 494.058 86.3121L491.002 95.0518C495.159 96.5305 499.937 97.1979 505.331 96.9341Z" fill="white"/>
<rect width="497" height="110" transform="translate(134.672 129.832) rotate(-2.8)" fill="white"/>
<path d="M189.898 207.227L202.003 206.634L201.355 193.39L218.794 192.537L218.279 181.99L200.839 182.843L200.444 174.753L221.239 173.736L220.711 162.948L187.811 164.558L189.898 207.227ZM241.714 205.533C252.861 204.988 259.73 198.044 259.205 187.317C258.684 176.65 251.167 170.35 240.02 170.895C228.874 171.44 222.007 178.444 222.529 189.111C223.054 199.838 230.568 206.078 241.714 205.533ZM241.204 195.106C237.549 195.285 235.083 192.762 234.874 188.507C234.669 184.312 236.875 181.501 240.53 181.322C244.246 181.141 246.655 183.726 246.86 187.921C247.068 192.176 244.92 194.924 241.204 195.106ZM264.925 203.557L276.971 202.968L276.244 188.106C275.995 183.012 278.729 181.196 282.744 181C283.703 180.953 284.728 181.023 285.875 181.147L285.266 168.682L284.547 168.717C280.651 168.908 277.434 170.687 274.935 173.632L274.759 170.037L263.313 170.597L264.925 203.557ZM301.678 201.76L335.537 200.104L335.03 189.736L312.857 190.82L312.576 185.067L330.674 184.182L330.202 174.534L312.104 175.419L311.784 168.887L333.298 167.834L332.791 157.467L299.591 159.091L301.678 201.76ZM359.033 165.915L355.674 177.072L354.313 182.425L352.495 177.168L348.126 166.448L334.402 167.12L351.536 199.321L358.547 198.978L372.397 165.261L359.033 165.915ZM406.805 180.098C406.309 169.97 400.324 163.055 389.058 163.606C378.99 164.098 372.013 171.287 372.526 181.775C373.039 192.262 379.662 198.726 390.929 198.175C399.259 197.768 404.098 194.768 406.829 190.429L399.288 184.851C397.55 187.399 394.555 188.807 391.619 188.951C387.724 189.141 385.547 187.626 384.55 184.431L406.903 183.337C406.919 182.436 406.843 180.877 406.805 180.098ZM389.5 172.655C393.516 172.458 395.043 175.447 395.203 177.482L384.116 178.024C384.702 174.031 387.163 172.769 389.5 172.655ZM412.112 196.358L424.158 195.769L423.431 180.907C423.182 175.813 425.916 173.997 429.932 173.801C430.891 173.754 431.915 173.824 433.063 173.948L432.453 161.483L431.734 161.518C427.838 161.709 424.622 163.488 422.122 166.434L421.947 162.838L410.5 163.398L412.112 196.358ZM458.767 161.037L453.555 178.533L446.422 161.641L432.938 162.3L449.063 193.53C447.682 196 445.263 196.9 442.686 197.026C441.307 197.093 440.097 196.912 438.207 196.344L438.673 205.872C440.5 206.384 442.607 206.461 444.584 206.364C450.757 206.062 456.565 204.457 460.299 193.581L471.592 160.41L458.767 161.037ZM490.909 193.346C502.055 192.8 508.924 185.857 508.4 175.129C507.878 164.462 500.361 158.162 489.215 158.707C478.068 159.252 471.202 166.256 471.723 176.923C472.248 187.65 479.762 193.891 490.909 193.346ZM490.399 182.918C486.743 183.097 484.277 180.574 484.069 176.319C483.864 172.124 486.069 169.313 489.724 169.135C493.44 168.953 495.849 171.538 496.054 175.733C496.262 179.988 494.114 182.736 490.399 182.918ZM514.119 191.369L526.165 190.78L525.116 169.326C526.01 167.961 527.527 167.045 529.265 166.96C533.1 166.773 533.862 168.838 534.108 173.872L534.914 190.352L546.96 189.763L545.978 169.687C545.515 160.219 542.427 156.044 533.318 156.49C529.483 156.678 526.023 158.409 524.068 160.186L523.954 157.849L512.507 158.409L514.119 191.369ZM584.834 171.391C584.339 161.263 578.354 154.347 567.087 154.898C557.019 155.391 550.042 162.58 550.555 173.068C551.068 183.555 557.692 190.019 568.958 189.468C577.288 189.061 582.127 186.061 584.859 181.722L577.317 176.144C575.58 178.692 572.585 180.1 569.648 180.244C565.753 180.434 563.576 178.919 562.579 175.724L584.932 174.63C584.948 173.728 584.872 172.17 584.834 171.391ZM567.53 163.948C571.545 163.751 573.073 166.74 573.232 168.775L562.146 169.317C562.731 165.324 565.193 164.062 567.53 163.948Z" fill="#141815"/>
</svg>
